<svg width="148" height="148" viewBox="0 0 148 148" fill="none" xmlns="http://www.w3.org/2000/svg">
<g clip-path="url(#clip0_354_8)">
<path d="M104.834 20.5967C114.134 25.9669 121.872 33.6732 127.279 42.9527C132.686 52.2321 135.577 62.7629 135.663 73.5026C135.75 84.2423 133.03 94.8184 127.774 104.184C122.517 113.55 114.905 121.38 105.692 126.9C96.4791 132.419 85.9843 135.437 75.2464 135.655C64.5086 135.872 53.9002 133.281 44.4714 128.139C35.0426 122.996 27.1204 115.48 21.4889 106.335C15.8575 97.1898 12.7122 86.7324 12.3643 75.998L12.3335 74L12.3643 72.002C12.7097 61.3521 15.8087 50.9734 21.3593 41.8778C26.9098 32.7822 34.7225 25.28 44.0357 20.1026C53.3488 14.9253 63.8446 12.2494 74.4997 12.336C85.1548 12.4226 95.6057 15.2687 104.834 20.5967ZM96.86 57.3068C95.7981 56.2451 94.3854 55.6073 92.8867 55.513C91.388 55.4188 89.9065 55.8746 88.72 56.795L88.1403 57.3068L67.8335 77.6075L59.86 69.6402L59.2803 69.1283C58.0938 68.2086 56.6125 67.7533 55.1142 67.8479C53.6159 67.9424 52.2035 68.5802 51.142 69.6418C50.0804 70.7034 49.4425 72.1157 49.348 73.614C49.2535 75.1123 49.7088 76.5936 50.6285 77.7802L51.1403 78.3598L63.4737 90.6932L64.0533 91.205C65.1348 92.0441 66.4647 92.4995 67.8335 92.4995C69.2023 92.4995 70.5322 92.0441 71.6137 91.205L72.1933 90.6932L96.86 66.0265L97.3718 65.4468C98.2922 64.2603 98.748 62.7788 98.6538 61.2801C98.5596 59.7815 97.9218 58.3687 96.86 57.3068Z" fill="url(#paint0_linear_354_8)"/>
</g>
<defs>
<linearGradient id="paint0_linear_354_8" x1="135.665" y1="74.0007" x2="12.3335" y2="74.0007" gradientUnits="userSpaceOnUse">
<stop stop-color="#6A9AE1"/>
<stop offset="0.5" stop-color="#5DBEAF"/>
<stop offset="1" stop-color="#71E793"/>
</linearGradient>
<clipPath id="clip0_354_8">
<rect width="148" height="148" fill="white"/>
</clipPath>
</defs>
</svg>
