<svg width="718" height="392" viewBox="0 0 718 392" fill="none" xmlns="http://www.w3.org/2000/svg">
<g clip-path="url(#clip0_371_2)">
<rect width="718" height="392" fill="url(#paint0_linear_371_2)"/>
<g filter="url(#filter0_d_371_2)">
<path d="M77 94C77 85.1635 84.1634 78 93 78H625C633.837 78 641 85.1634 641 94V514H77V94Z" fill="white" shape-rendering="crispEdges"/>
<rect x="123" y="198" width="475" height="26" rx="13" fill="#EEEEEE"/>
<rect x="123" y="243" width="430" height="24" rx="12" fill="#EEEEEE"/>
<rect x="123" y="286" width="475" height="24" rx="12" fill="#EEEEEE"/>
<rect x="359" y="329" width="211" height="26" rx="13" fill="#EEEEEE"/>
<rect x="123" y="329" width="209" height="116" rx="19" fill="#EEEEEE"/>
<rect x="359" y="374" width="188" height="26" rx="13" fill="#EEEEEE"/>
<path d="M126.024 160V128.71H146.898V133.75H131.736V142.402H145.008V147.442H131.736V160H126.024ZM148.9 160V137.152H154.066V142.234L153.646 141.478C154.178 139.77 155.004 138.58 156.124 137.908C157.272 137.236 158.644 136.9 160.24 136.9H161.584V141.772H159.61C158.042 141.772 156.782 142.262 155.83 143.242C154.878 144.194 154.402 145.538 154.402 147.274V160H148.9ZM175.445 160.504C173.093 160.504 171.035 159.972 169.271 158.908C167.507 157.844 166.135 156.402 165.155 154.582C164.175 152.762 163.685 150.746 163.685 148.534C163.685 146.238 164.175 144.208 165.155 142.444C166.163 140.652 167.521 139.238 169.229 138.202C170.965 137.166 172.897 136.648 175.025 136.648C176.817 136.648 178.385 136.942 179.729 137.53C181.101 138.118 182.263 138.93 183.215 139.966C184.167 141.002 184.895 142.192 185.399 143.536C185.903 144.852 186.155 146.28 186.155 147.82C186.155 148.212 186.127 148.618 186.071 149.038C186.043 149.458 185.973 149.822 185.861 150.13H168.221V145.93H182.753L180.149 147.904C180.401 146.616 180.331 145.468 179.939 144.46C179.575 143.452 178.959 142.654 178.091 142.066C177.251 141.478 176.229 141.184 175.025 141.184C173.877 141.184 172.855 141.478 171.959 142.066C171.063 142.626 170.377 143.466 169.901 144.586C169.453 145.678 169.285 147.008 169.397 148.576C169.285 149.976 169.467 151.222 169.943 152.314C170.447 153.378 171.175 154.204 172.127 154.792C173.107 155.38 174.227 155.674 175.487 155.674C176.747 155.674 177.811 155.408 178.679 154.876C179.575 154.344 180.275 153.63 180.779 152.734L185.231 154.918C184.783 156.01 184.083 156.976 183.131 157.816C182.179 158.656 181.045 159.314 179.729 159.79C178.441 160.266 177.013 160.504 175.445 160.504ZM201.162 160.504C198.81 160.504 196.752 159.972 194.988 158.908C193.224 157.844 191.852 156.402 190.872 154.582C189.892 152.762 189.402 150.746 189.402 148.534C189.402 146.238 189.892 144.208 190.872 142.444C191.88 140.652 193.238 139.238 194.946 138.202C196.682 137.166 198.614 136.648 200.742 136.648C202.534 136.648 204.102 136.942 205.446 137.53C206.818 138.118 207.98 138.93 208.932 139.966C209.884 141.002 210.612 142.192 211.116 143.536C211.62 144.852 211.872 146.28 211.872 147.82C211.872 148.212 211.844 148.618 211.788 149.038C211.76 149.458 211.69 149.822 211.578 150.13H193.938V145.93H208.47L205.866 147.904C206.118 146.616 206.048 145.468 205.656 144.46C205.292 143.452 204.676 142.654 203.808 142.066C202.968 141.478 201.946 141.184 200.742 141.184C199.594 141.184 198.572 141.478 197.676 142.066C196.78 142.626 196.094 143.466 195.618 144.586C195.17 145.678 195.002 147.008 195.114 148.576C195.002 149.976 195.184 151.222 195.66 152.314C196.164 153.378 196.892 154.204 197.844 154.792C198.824 155.38 199.944 155.674 201.204 155.674C202.464 155.674 203.528 155.408 204.396 154.876C205.292 154.344 205.992 153.63 206.496 152.734L210.948 154.918C210.5 156.01 209.8 156.976 208.848 157.816C207.896 158.656 206.762 159.314 205.446 159.79C204.158 160.266 202.73 160.504 201.162 160.504ZM223.969 160V128.71H235.645C237.773 128.71 239.649 129.102 241.273 129.886C242.925 130.642 244.213 131.762 245.137 133.246C246.061 134.702 246.523 136.48 246.523 138.58C246.523 140.652 246.047 142.43 245.095 143.914C244.171 145.37 242.897 146.49 241.273 147.274C239.649 148.058 237.773 148.45 235.645 148.45H229.681V160H223.969ZM229.681 143.41H235.729C236.765 143.41 237.661 143.214 238.417 142.822C239.173 142.402 239.761 141.828 240.181 141.1C240.601 140.372 240.811 139.532 240.811 138.58C240.811 137.6 240.601 136.76 240.181 136.06C239.761 135.332 239.173 134.772 238.417 134.38C237.661 133.96 236.765 133.75 235.729 133.75H229.681V143.41ZM250.742 160V128.206H256.244V160H250.742ZM268.254 160.504C266.658 160.504 265.272 160.238 264.096 159.706C262.92 159.174 262.01 158.418 261.366 157.438C260.722 156.43 260.4 155.268 260.4 153.952C260.4 152.692 260.68 151.572 261.24 150.592C261.8 149.584 262.668 148.744 263.844 148.072C265.02 147.4 266.504 146.924 268.296 146.644L275.772 145.426V149.626L269.346 150.718C268.254 150.914 267.442 151.264 266.91 151.768C266.378 152.272 266.112 152.93 266.112 153.742C266.112 154.526 266.406 155.156 266.994 155.632C267.61 156.08 268.366 156.304 269.262 156.304C270.41 156.304 271.418 156.066 272.286 155.59C273.182 155.086 273.868 154.4 274.344 153.532C274.848 152.664 275.1 151.712 275.1 150.676V144.796C275.1 143.816 274.708 143.004 273.924 142.36C273.168 141.688 272.16 141.352 270.9 141.352C269.724 141.352 268.674 141.674 267.75 142.318C266.854 142.934 266.196 143.76 265.776 144.796L261.282 142.612C261.73 141.408 262.43 140.372 263.382 139.504C264.362 138.608 265.51 137.908 266.826 137.404C268.142 136.9 269.57 136.648 271.11 136.648C272.986 136.648 274.638 136.998 276.066 137.698C277.494 138.37 278.6 139.322 279.384 140.554C280.196 141.758 280.602 143.172 280.602 144.796V160H275.394V156.094L276.57 156.01C275.982 156.99 275.282 157.816 274.47 158.488C273.658 159.132 272.734 159.636 271.698 160C270.662 160.336 269.514 160.504 268.254 160.504ZM285.687 160V137.152H290.853V141.646L290.433 140.848C290.965 139.476 291.833 138.44 293.037 137.74C294.269 137.012 295.697 136.648 297.321 136.648C299.001 136.648 300.485 137.012 301.773 137.74C303.089 138.468 304.111 139.49 304.839 140.806C305.567 142.094 305.931 143.592 305.931 145.3V160H300.429V146.602C300.429 145.594 300.233 144.726 299.841 143.998C299.449 143.27 298.903 142.71 298.203 142.318C297.531 141.898 296.733 141.688 295.809 141.688C294.913 141.688 294.115 141.898 293.415 142.318C292.715 142.71 292.169 143.27 291.777 143.998C291.385 144.726 291.189 145.594 291.189 146.602V160H285.687Z" fill="#444444"/>
</g>
</g>
<defs>
<filter id="filter0_d_371_2" x="46.6" y="50.6" width="624.8" height="496.8" filterUnits="userSpaceOnUse" color-interpolation-filters="sRGB">
<feFlood flood-opacity="0" result="BackgroundImageFix"/>
<feColorMatrix in="SourceAlpha" type="matrix" values="0 0 0 0 0 0 0 0 0 0 0 0 0 0 0 0 0 0 127 0" result="hardAlpha"/>
<feOffset dy="3"/>
<feGaussianBlur stdDeviation="15.2"/>
<feComposite in2="hardAlpha" operator="out"/>
<feColorMatrix type="matrix" values="0 0 0 0 0 0 0 0 0 0 0 0 0 0 0 0 0 0 0.12 0"/>
<feBlend mode="normal" in2="BackgroundImageFix" result="effect1_dropShadow_371_2"/>
<feBlend mode="normal" in="SourceGraphic" in2="effect1_dropShadow_371_2" result="shape"/>
</filter>
<linearGradient id="paint0_linear_371_2" x1="718" y1="196" x2="0" y2="196" gradientUnits="userSpaceOnUse">
<stop stop-color="#67AACC"/>
<stop offset="0.5" stop-color="#63BDB5"/>
<stop offset="1" stop-color="#65D29F"/>
</linearGradient>
<clipPath id="clip0_371_2">
<rect width="718" height="392" fill="white"/>
</clipPath>
</defs>
</svg>
