<svg width="87" height="94" viewBox="0 0 87 94" fill="none" xmlns="http://www.w3.org/2000/svg">
<path d="M51.8613 36.3628C50.7876 36.3602 49.9068 35.5099 49.8669 34.4369L49.2334 17.3698C49.1665 15.5702 51.3261 14.6053 52.6215 15.8562L70.3352 32.9621C71.6302 34.2132 70.7415 36.405 68.9408 36.401L51.8613 36.3628Z" stroke="#D9D9D9" stroke-width="4"/>
<path d="M55.4805 17.2684H20C16.134 17.2684 13 20.4024 13 24.2684V82.2684C13 86.1344 16.134 89.2684 20 89.2684H62C65.866 89.2684 69 86.1344 69 82.2684V30.5038L73 34.4198V82.2684C73 88.3436 68.0751 93.2684 62 93.2684H20L19.4336 93.2538C13.8093 92.9685 9.29993 88.4591 9.01465 82.8348L9 82.2684V24.2684C9 18.1933 13.9249 13.2684 20 13.2684H51.3945L55.4805 17.2684Z" fill="#D9D9D9"/>
<rect y="48.2684" width="58" height="32" rx="9" fill="#CE2F4C"/>
<path d="M20.328 60.8444C20.328 61.8204 20.104 62.7164 19.656 63.5324C19.208 64.3324 18.52 64.9804 17.592 65.4764C16.664 65.9724 15.512 66.2204 14.136 66.2204H11.592V72.2684H7.488V55.4204H14.136C15.48 55.4204 16.616 55.6524 17.544 56.1164C18.472 56.5804 19.168 57.2204 19.632 58.0364C20.096 58.8524 20.328 59.7884 20.328 60.8444ZM13.824 62.9564C14.608 62.9564 15.192 62.7724 15.576 62.4044C15.96 62.0364 16.152 61.5164 16.152 60.8444C16.152 60.1724 15.96 59.6524 15.576 59.2844C15.192 58.9164 14.608 58.7324 13.824 58.7324H11.592V62.9564H13.824ZM28.7766 55.4204C30.5526 55.4204 32.1046 55.7724 33.4326 56.4764C34.7606 57.1804 35.7846 58.1724 36.5046 59.4524C37.2406 60.7164 37.6086 62.1804 37.6086 63.8444C37.6086 65.4924 37.2406 66.9564 36.5046 68.2364C35.7846 69.5164 34.7526 70.5084 33.4086 71.2124C32.0806 71.9164 30.5366 72.2684 28.7766 72.2684H22.4646V55.4204H28.7766ZM28.5126 68.7164C30.0646 68.7164 31.2726 68.2924 32.1366 67.4444C33.0006 66.5964 33.4326 65.3964 33.4326 63.8444C33.4326 62.2924 33.0006 61.0844 32.1366 60.2204C31.2726 59.3564 30.0646 58.9244 28.5126 58.9244H26.5686V68.7164H28.5126ZM50.8701 55.4204V58.7084H44.0061V62.2604H49.1421V65.4524H44.0061V72.2684H39.9021V55.4204H50.8701Z" fill="white"/>
</svg>
