<svg width="718" height="516" viewBox="0 0 718 516" fill="none" xmlns="http://www.w3.org/2000/svg">
<path d="M0 8C0 3.58173 3.58172 0 8 0H710C714.418 0 718 3.58172 718 8V508C718 512.418 714.418 516 710 516H8.00001C3.58173 516 0 512.418 0 508V8Z" fill="#F7F7F7"/>
<path d="M213.615 197.578C212.843 186.033 221.999 176.244 233.57 176.244H475.617C487.223 176.244 496.392 186.09 495.566 197.666L483.855 361.9C483.108 372.367 474.399 380.477 463.905 380.477H244.55C234.022 380.477 225.296 372.316 224.594 361.811L213.615 197.578Z" fill="url(#paint0_linear_341_598)"/>
<g filter="url(#filter0_d_341_598)">
<path d="M372.889 85.2135C375.796 75.7067 385.859 70.3562 395.365 73.2628L506.136 107.129C515.643 110.036 520.993 120.099 518.087 129.605L471.1 283.291C468.193 292.798 458.13 298.148 448.624 295.242L337.853 261.375C328.346 258.469 322.995 248.406 325.902 238.899L372.889 85.2135Z" fill="white"/>
</g>
<rect x="380.48" y="91.0654" width="124.193" height="18.6695" rx="9.33476" transform="rotate(17.0002 380.48 91.0654)" fill="#EEEEEE"/>
<rect x="371.461" y="120.563" width="76.1457" height="18.6695" rx="9.33476" transform="rotate(17.0002 371.461 120.563)" fill="#EEEEEE"/>
<rect x="364.168" y="147.193" width="131.498" height="18.6695" rx="9.33476" transform="rotate(17.0002 364.168 147.193)" fill="#EEEEEE"/>
<rect x="350.705" y="194.005" width="64.1257" height="18.6695" rx="9.33476" transform="rotate(17.0002 350.705 194.005)" fill="#EEEEEE"/>
<rect x="340.911" y="223.265" width="92.5358" height="18.6695" rx="9.33476" transform="rotate(17.0002 340.911 223.265)" fill="#EEEEEE"/>
<g filter="url(#filter1_d_341_598)">
<path d="M217.598 151.679C214.161 142.351 218.936 132.003 228.265 128.566L336.954 88.5194C346.282 85.0825 356.63 89.8582 360.067 99.1863L415.628 249.984C419.065 259.312 414.29 269.66 404.962 273.097L296.272 313.144C286.944 316.581 276.596 311.805 273.159 302.477L217.598 151.679Z" fill="white"/>
</g>
<rect x="227.182" y="151.747" width="71.8112" height="18.6695" rx="9.33476" transform="rotate(-20.2263 227.182 151.747)" fill="#EEEEEE"/>
<rect x="237.846" y="180.69" width="120.134" height="18.6695" rx="9.33476" transform="rotate(-20.2263 237.846 180.69)" fill="#EEEEEE"/>
<rect x="248.149" y="206.306" width="131.498" height="18.6695" rx="9.33476" transform="rotate(-20.2263 248.149 206.306)" fill="#EEEEEE"/>
<rect x="265.749" y="251.725" width="64.1257" height="18.6695" rx="9.33476" transform="rotate(-20.2263 265.749 251.725)" fill="#EEEEEE"/>
<rect x="275.651" y="280.949" width="92.5358" height="18.6695" rx="9.33476" transform="rotate(-20.2263 275.651 280.949)" fill="#EEEEEE"/>
<g filter="url(#filter2_d_341_598)">
<path d="M309.916 111.197C311.819 101.439 321.272 95.0722 331.029 96.9751L444.719 119.148C454.477 121.051 460.844 130.503 458.941 140.26L428.178 297.997C426.275 307.754 416.823 314.121 407.065 312.218L293.375 290.046C283.618 288.143 277.251 278.69 279.154 268.933L309.916 111.197Z" fill="white"/>
</g>
<rect x="318.074" y="116.228" width="124.193" height="18.6695" rx="9.33476" transform="rotate(11.0357 318.074 116.228)" fill="#EEEEEE"/>
<rect x="312.169" y="146.503" width="76.1457" height="18.6695" rx="9.33476" transform="rotate(11.0357 312.169 146.503)" fill="#EEEEEE"/>
<rect x="307.684" y="173.746" width="131.498" height="18.6695" rx="9.33476" transform="rotate(11.0357 307.684 173.746)" fill="#EEEEEE"/>
<rect x="299.157" y="221.704" width="64.1257" height="18.6695" rx="9.33476" transform="rotate(11.0357 299.157 221.704)" fill="#EEEEEE"/>
<rect x="292.457" y="251.823" width="92.5358" height="18.6695" rx="9.33476" transform="rotate(11.0357 292.457 251.823)" fill="#EEEEEE"/>
<g filter="url(#filter3_d_341_598)">
<path d="M297.126 208.79C294.321 199.253 299.778 189.247 309.315 186.441L420.439 153.752C429.976 150.947 439.981 156.403 442.787 165.941L488.141 320.116C490.946 329.653 485.489 339.659 475.952 342.464L364.828 375.154C355.291 377.959 345.286 372.502 342.48 362.965L297.126 208.79Z" fill="white"/>
</g>
<rect x="306.685" y="209.498" width="124.193" height="18.6695" rx="9.33476" transform="rotate(-16.3923 306.685 209.498)" fill="#EEEEEE"/>
<rect x="315.39" y="239.089" width="76.1457" height="18.6695" rx="9.33476" transform="rotate(-16.3923 315.39 239.089)" fill="#EEEEEE"/>
<rect x="323.957" y="265.336" width="131.498" height="18.6695" rx="9.33476" transform="rotate(-16.3923 323.957 265.336)" fill="#EEEEEE"/>
<rect x="338.48" y="311.831" width="64.1257" height="18.6695" rx="9.33476" transform="rotate(-16.3923 338.48 311.831)" fill="#EEEEEE"/>
<rect x="346.407" y="341.652" width="92.5358" height="18.6695" rx="9.33476" transform="rotate(-16.3923 346.407 341.652)" fill="#EEEEEE"/>
<g filter="url(#filter4_d_341_598)">
<path d="M316.263 200.752C324.047 200.752 330.792 205.2 334.097 211.692L334.22 211.14C339.326 216.56 353.622 231.466 362.812 231.466H493.076C504.833 231.466 514.054 241.557 512.995 253.266L500.273 393.934C499.341 404.24 490.702 412.134 480.354 412.134H229.035C218.645 412.134 209.984 404.176 209.106 393.823L197.181 253.155C197.063 251.763 197.091 250.394 197.25 249.062L195.068 222.382C194.116 210.732 203.313 200.752 215.001 200.752H316.263Z" fill="url(#paint1_linear_341_598)"/>
</g>
<defs>
<filter id="filter0_d_341_598" x="313.211" y="64.5714" width="217.567" height="247.362" filterUnits="userSpaceOnUse" color-interpolation-filters="sRGB">
<feFlood flood-opacity="0" result="BackgroundImageFix"/>
<feColorMatrix in="SourceAlpha" type="matrix" values="0 0 0 0 0 0 0 0 0 0 0 0 0 0 0 0 0 0 127 0" result="hardAlpha"/>
<feOffset dy="4"/>
<feGaussianBlur stdDeviation="5.95"/>
<feComposite in2="hardAlpha" operator="out"/>
<feColorMatrix type="matrix" values="0 0 0 0 0 0 0 0 0 0 0 0 0 0 0 0 0 0 0.09 0"/>
<feBlend mode="normal" in2="BackgroundImageFix" result="effect1_dropShadow_341_598"/>
<feBlend mode="normal" in="SourceGraphic" in2="effect1_dropShadow_341_598" result="shape"/>
</filter>
<filter id="filter1_d_341_598" x="204.583" y="79.5045" width="224.06" height="250.654" filterUnits="userSpaceOnUse" color-interpolation-filters="sRGB">
<feFlood flood-opacity="0" result="BackgroundImageFix"/>
<feColorMatrix in="SourceAlpha" type="matrix" values="0 0 0 0 0 0 0 0 0 0 0 0 0 0 0 0 0 0 127 0" result="hardAlpha"/>
<feOffset dy="4"/>
<feGaussianBlur stdDeviation="5.95"/>
<feComposite in2="hardAlpha" operator="out"/>
<feColorMatrix type="matrix" values="0 0 0 0 0 0 0 0 0 0 0 0 0 0 0 0 0 0 0.09 0"/>
<feBlend mode="normal" in2="BackgroundImageFix" result="effect1_dropShadow_341_598"/>
<feBlend mode="normal" in="SourceGraphic" in2="effect1_dropShadow_341_598" result="shape"/>
</filter>
<filter id="filter2_d_341_598" x="266.917" y="86.7389" width="204.259" height="239.716" filterUnits="userSpaceOnUse" color-interpolation-filters="sRGB">
<feFlood flood-opacity="0" result="BackgroundImageFix"/>
<feColorMatrix in="SourceAlpha" type="matrix" values="0 0 0 0 0 0 0 0 0 0 0 0 0 0 0 0 0 0 127 0" result="hardAlpha"/>
<feOffset dy="2"/>
<feGaussianBlur stdDeviation="5.95"/>
<feComposite in2="hardAlpha" operator="out"/>
<feColorMatrix type="matrix" values="0 0 0 0 0 0 0 0 0 0 0 0 0 0 0 0 0 0 0.09 0"/>
<feBlend mode="normal" in2="BackgroundImageFix" result="effect1_dropShadow_341_598"/>
<feBlend mode="normal" in="SourceGraphic" in2="effect1_dropShadow_341_598" result="shape"/>
</filter>
<filter id="filter3_d_341_598" x="284.49" y="145.116" width="216.287" height="246.674" filterUnits="userSpaceOnUse" color-interpolation-filters="sRGB">
<feFlood flood-opacity="0" result="BackgroundImageFix"/>
<feColorMatrix in="SourceAlpha" type="matrix" values="0 0 0 0 0 0 0 0 0 0 0 0 0 0 0 0 0 0 127 0" result="hardAlpha"/>
<feOffset dy="4"/>
<feGaussianBlur stdDeviation="5.95"/>
<feComposite in2="hardAlpha" operator="out"/>
<feColorMatrix type="matrix" values="0 0 0 0 0 0 0 0 0 0 0 0 0 0 0 0 0 0 0.09 0"/>
<feBlend mode="normal" in2="BackgroundImageFix" result="effect1_dropShadow_341_598"/>
<feBlend mode="normal" in="SourceGraphic" in2="effect1_dropShadow_341_598" result="shape"/>
</filter>
<filter id="filter4_d_341_598" x="173.7" y="183.452" width="360.678" height="253.982" filterUnits="userSpaceOnUse" color-interpolation-filters="sRGB">
<feFlood flood-opacity="0" result="BackgroundImageFix"/>
<feColorMatrix in="SourceAlpha" type="matrix" values="0 0 0 0 0 0 0 0 0 0 0 0 0 0 0 0 0 0 127 0" result="hardAlpha"/>
<feOffset dy="4"/>
<feGaussianBlur stdDeviation="10.65"/>
<feComposite in2="hardAlpha" operator="out"/>
<feColorMatrix type="matrix" values="0 0 0 0 0 0 0 0 0 0 0 0 0 0 0 0 0 0 0.18 0"/>
<feBlend mode="normal" in2="BackgroundImageFix" result="effect1_dropShadow_341_598"/>
<feBlend mode="normal" in="SourceGraphic" in2="effect1_dropShadow_341_598" result="shape"/>
</filter>
<linearGradient id="paint0_linear_341_598" x1="497.094" y1="278.36" x2="212.188" y2="278.36" gradientUnits="userSpaceOnUse">
<stop stop-color="#2E79A8"/>
<stop offset="0.5" stop-color="#37928D"/>
<stop offset="1" stop-color="#3B8861"/>
</linearGradient>
<linearGradient id="paint1_linear_341_598" x1="182.743" y1="306.953" x2="533.086" y2="313.083" gradientUnits="userSpaceOnUse">
<stop stop-color="#66D89A"/>
<stop offset="0.5" stop-color="#63BCB4"/>
<stop offset="1" stop-color="#69A3D5"/>
</linearGradient>
</defs>
</svg>
